Coordinates
version=1
nRows=22
nColumns=24
inDegrees=yes

Units are S.I. units (second, meters, Newtons, ...)
Angles are in degrees.

endheader
time	pelvis_tilt	pelvis_list	pelvis_rotation	pelvis_tx	pelvis_ty	pelvis_tz	hip_flexion_r	hip_adduction_r	hip_rotation_r	knee_angle_r	ankle_angle_r	subtalar_angle_r	mtp_angle_r	hip_flexion_l	hip_adduction_l	hip_rotation_l	knee_angle_l	ankle_angle_l	subtalar_angle_l	mtp_angle_l	lumbar_extension	lumbar_bending	lumbar_rotation
      5.40000000	     52.51147732	      4.29188086	     -4.25350665	      1.28695996	      1.04373562	     -0.28812198	     24.19523418	     -7.37537402	      5.58202525	    -53.31836170	    -23.49344393	      0.00000000	      0.00000000	     18.88443646	    -11.24672739	     -5.25316344	    -62.86547710	    -14.82480935	      0.00000000	      0.00000000	      0.00000000	      0.00000000	      0.00000000
      5.41000000	     52.52192591	      4.28121204	     -4.29329698	      1.28691062	      1.04373507	     -0.28801666	     24.19457290	     -7.34634175	      5.53024394	    -53.08556500	    -23.44329519	      0.00000000	      0.00000000	     18.87065857	    -11.26237150	     -5.27179317	    -62.87726281	    -14.83014484	      0.00000000	      0.00000000	      0.00000000	      0.00000000	      0.00000000
      5.42000000	     52.53183804	      4.27559099	     -4.31547951	      1.28691757	      1.04377355	     -0.28802822	     24.18852027	     -7.37118611	      5.44245116	    -52.90637897	    -23.48340424	      0.00000000	      0.00000000	     18.85501306	    -11.26716187	     -5.29428951	    -62.88192135	    -14.82783890	      0.00000000	      0.00000000	      0.00000000	      0.00000000	      0.00000000
      5.43000000	     52.54163486	      4.27670495	     -4.31496463	      1.28694883	      1.04381538	     -0.28810608	     24.17680540	     -7.41945366	      5.36177840	    -52.78481369	    -23.55351554	      0.00000000	      0.00000000	     18.84145415	    -11.26483425	     -5.31227502	    -62.87794437	    -14.82119056	      0.00000000	      0.00000000	      0.00000000	      0.00000000	      0.00000000
      5.44000000	     52.55007653	      4.28291780	     -4.29943325	      1.28697091	      1.04384565	     -0.28817923	     24.16152228	     -7.46590315	      5.31442431	    -52.72259665	    -23.60302686	      0.00000000	      0.00000000	     18.83203020	    -11.25768505	     -5.32191268	    -62.86825067	    -14.81398427	      0.00000000	      0.00000000	      0.00000000	      0.00000000	      0.00000000
      5.45000000	     52.55550316	      4.28998299	     -4.28256501	      1.28697332	      1.04386768	     -0.28821570	     24.14657238	     -7.49605672	      5.30870167	    -52.72278254	    -23.60399106	      0.00000000	      0.00000000	     18.82636524	    -11.24801737	     -5.32293957	    -62.85746801	    -14.80938222	      0.00000000	      0.00000000	      0.00000000	      0.00000000	      0.00000000
      5.46000000	     52.55785073	      4.29416757	     -4.27535318	      1.28696045	      1.04387860	     -0.28821618	     24.13661326	     -7.50540073	      5.33971662	    -52.79010228	    -23.55532612	      0.00000000	      0.00000000	     18.82216352	    -11.23813283	     -5.31675294	    -62.84925220	    -14.80907976	      0.00000000	      0.00000000	      0.00000000	      0.00000000	      0.00000000
      5.47000000	     52.55960515	      4.29463948	     -4.27975010	      1.28693831	      1.04386631	     -0.28818293	     24.13490870	     -7.49679610	      5.39612662	    -52.92852008	    -23.47937972	      0.00000000	      0.00000000	     18.81675530	    -11.22957354	     -5.30476005	    -62.84451148	    -14.81286611	      0.00000000	      0.00000000	      0.00000000	      0.00000000	      0.00000000
      5.48000000	     52.56458877	      4.29338127	     -4.28757855	      1.28691296	      1.04383047	     -0.28811926	     24.14062830	     -7.47948758	      5.46519325	    -53.13766739	    -23.41355148	      0.00000000	      0.00000000	     18.80883734	    -11.22252335	     -5.28789536	    -62.84122088	    -14.81866571	      0.00000000	      0.00000000	      0.00000000	      0.00000000	      0.00000000
      5.49000000	     52.57490300	      4.29311928	     -4.28555107	      1.28690453	      1.04378995	     -0.28806350	     24.14707936	     -7.46987513	      5.53358642	    -53.40997254	    -23.39979031	      0.00000000	      0.00000000	     18.79927148	    -11.21558148	     -5.26753315	    -62.83604222	    -14.82307566	      0.00000000	      0.00000000	      0.00000000	      0.00000000	      0.00000000
      5.50000000	     52.58847065	      4.29513720	     -4.26433625	      1.28693772	      1.04377499	     -0.28809074	     24.14327245	     -7.49107499	      5.58410021	    -53.72952421	    -23.47398841	      0.00000000	      0.00000000	     18.79016535	    -11.20540264	     -5.24721703	    -62.82726204	    -14.82232719	      0.00000000	      0.00000000	      0.00000000	      0.00000000	      0.00000000
      5.51000000	     52.60038936	      4.29945752	     -4.22685909	      1.28698635	      1.04382412	     -0.28823406	     24.12040856	     -7.56703552	      5.59157186	    -54.07313944	    -23.65640561	      0.00000000	      0.00000000	     18.78236089	    -11.18579532	     -5.23400683	    -62.81775646	    -14.81347440	      0.00000000	      0.00000000	      0.00000000	      0.00000000	      0.00000000
      5.52000000	     52.60859003	      4.30904215	     -4.19032402	      1.28695128	      1.04395893	     -0.28840816	     24.08086748	     -7.70969357	      5.52353377	    -54.41476101	    -23.94401150	      0.00000000	      0.00000000	     18.77272119	    -11.14726140	     -5.23795278	    -62.81595782	    -14.79547979	      0.00000000	      0.00000000	      0.00000000	      0.00000000	      0.00000000
      5.53000000	     52.61960682	      4.33513940	     -4.17907542	      1.28678224	      1.04412214	     -0.28848907	     24.04249340	     -7.90526314	      5.35120689	    -54.73502714	    -24.30615972	      0.00000000	      0.00000000	     18.75390595	    -11.07972313	     -5.26842432	    -62.83267083	    -14.76979962	      0.00000000	      0.00000000	      0.00000000	      0.00000000	      0.00000000
      5.54000000	     52.64728904	      4.39466361	     -4.21051990	      1.28665353	      1.04416003	     -0.28852079	     24.03073300	     -8.11298187	      5.07208869	    -55.03583283	    -24.68570434	      0.00000000	      0.00000000	     18.71862755	    -10.98014122	     -5.32765467	    -62.87363110	    -14.74017928	      0.00000000	      0.00000000	      0.00000000	      0.00000000	      0.00000000
      5.55000000	     52.70045940	      4.49198525	     -4.28131933	      1.28685218	      1.04395209	     -0.28871504	     24.05922409	     -8.28584261	      4.73508257	    -55.35351397	    -25.00762433	      0.00000000	      0.00000000	     18.66646833	    -10.86133235	     -5.40499049	    -62.93205469	    -14.71169184	      0.00000000	      0.00000000	      0.00000000	      0.00000000	      0.00000000
      5.56000000	     52.76798289	      4.59735437	     -4.36351804	      1.28732533	      1.04361292	     -0.28909372	     24.11296747	     -8.40139443	      4.44618606	    -55.75670518	    -25.19566218	      0.00000000	      0.00000000	     18.60767958	    -10.75350220	     -5.47714510	    -62.98803480	    -14.68941111	      0.00000000	      0.00000000	      0.00000000	      0.00000000	      0.00000000
      5.57000000	     52.82133505	      4.65639835	     -4.41704052	      1.28760158	      1.04345606	     -0.28936475	     24.15441638	     -8.46886324	      4.33186390	    -56.31635724	    -25.19432911	      0.00000000	      0.00000000	     18.55941123	    -10.69273210	     -5.51713391	    -63.01808594	    -14.67722315	      0.00000000	      0.00000000	      0.00000000	      0.00000000	      0.00000000
      5.58000000	     52.83784033	      4.63384857	     -4.41295336	      1.28737492	      1.04365162	     -0.28930287	     24.15283749	     -8.50378965	      4.47118533	    -57.06084340	    -24.99000950	      0.00000000	      0.00000000	     18.53578004	    -10.70111425	     -5.50817175	    -63.00971040	    -14.67706873	      0.00000000	      0.00000000	      0.00000000	      0.00000000	      0.00000000
      5.59000000	     52.81985948	      4.54410961	     -4.35140329	      1.28689255	      1.04400750	     -0.28899161	     24.10995707	     -8.50557655	      4.84598514	    -57.95363295	    -24.62258004	      0.00000000	      0.00000000	     18.53916277	    -10.77237564	     -5.45375717	    -62.97008683	    -14.68860562	      0.00000000	      0.00000000	      0.00000000	      0.00000000	      0.00000000
      5.60000000	     52.79092977	      4.43853620	     -4.26220566	      1.28661802	      1.04420272	     -0.28868748	     24.05881999	     -8.46385096	      5.34652583	    -58.91452629	    -24.18009149	      0.00000000	      0.00000000	     18.55963732	    -10.87452903	     -5.37669153	    -62.92168693	    -14.70920970	      0.00000000	      0.00000000	      0.00000000	      0.00000000	      0.00000000
      5.61000000	     52.77483502	      4.36569960	     -4.18789459	      1.28668797	      1.04415487	     -0.28856394	     24.03881739	     -8.38328097	      5.82773488	    -59.86592480	    -23.77485560	      0.00000000	      0.00000000	     18.58237146	    -10.96814013	     -5.30730642	    -62.88829694	    -14.73438992	      0.00000000	      0.00000000	      0.00000000	      0.00000000	      0.00000000
